<svg xmlns="http://www.w3.org/2000/svg" viewBox="0 0 153.05 192.37"><title>prod</title><g id="Layer_2" data-name="Layer 2"><g id="Layer_1-2" data-name="Layer 1"><g id="_000000ff" data-name="#000000ff"><path d="M73.16.48c5.83-2.11,12.76,3,12,9.25.4,7.13-9.3,12-14.67,7.09C64.6,12.74,66.3,2.54,73.16.48m.67,10.89c1.45,2,3.79.61,5.34-.41A6,6,0,0,0,77,6.05C74.21,5.88,72.14,9,73.83,11.37Z"/><path d="M125.34,16.76c1.88-4,5.5-7.53,10.19-7.44,7.24-.58,13.35,7.73,10.55,14.45-1.11,3.86-4.7,6.13-8.31,7.3l-3.27,0c-1.64-.39-3.37-1.64-5.05-.73-4.76,3.15-9.5,6.34-14.18,9.6a27.9,27.9,0,0,1,.54,7.89c-.54,1.25-1,2.53-1.55,3.79a18.51,18.51,0,0,1-7.63,6.66c-2.13.15-4.26.25-6.38.26C98,61.8,96,65.29,94,68.75l1.67,2a15,15,0,0,1-.17,7c-1.78,3.23-5,5.9-8.91,5.66-3.7.1-6.48-2.64-8.43-5.46-.38-3.35-.94-7.32,1.64-10C82,65,86,64.71,89.49,64.36a59.09,59.09,0,0,1,4.58-8,17,17,0,0,1-4.66-6.14c-5.39-.21-10.62,1.29-16,1.49a12.92,12.92,0,0,1-4.75,6.64c-2.76,0-6.17,1-8.25-1.44-2.86-2.13-3.34-6.17-2.09-9.33,1-2.06,3-3.15,4.84-4.3a33.71,33.71,0,0,1,5.21.44c2.78,3.42,7.5,1.18,11.18,1.17A50.67,50.67,0,0,1,87.73,44l1.11-2c.07-.59.2-1.76.27-2.35q1.33-2.13,2.69-4.26c-.66-1-1.33-2-2-2.92,1.68-1.17,3.08-3.49,5.35-3.35,1.47,3.77,5.36,1.53,8.33,1.91a12.74,12.74,0,0,1,7.93,3.6c5-2.9,9.76-6.3,14.49-9.65a18.36,18.36,0,0,1-.55-8.2M131,19.51c.34,1.19.7,2.37,1,3.56,1.16.74,2.33,1.45,3.51,2.16,2-.9,4.85-1.77,4.75-4.43.85-3.49-3.72-6.8-6.68-4.64-1.33.66-1.79,2.22-2.62,3.35M98,38.45c-5,2.86-4,10.64.55,13.45a32,32,0,0,0,6.26.45c2.47-1.8,5.23-4.14,4.73-7.58.67-5.86-6.95-9.51-11.54-6.32M64,50.31c0,.5.13,1.5.18,2l2.49-.12.24-1.72-1.42-1.4L64,50.31M83.92,72.22q.06,1.95.18,3.9c1.19.28,2.43,1.32,3.69.74,1.47-.38,1.72-2,2.33-3.19l-1.6-2.45A6.46,6.46,0,0,0,83.92,72.22Z"/><path d="M94.14,12.81l2.35-1.68a69.77,69.77,0,0,1,22.59,7.4,3.06,3.06,0,0,1,1.19,4.79c-1.62,2.06-4.43.77-6.25-.25-5.55-3-11.76-4.24-17.81-5.73C93.82,17.13,94.27,14.51,94.14,12.81Z"/><path d="M25.28,58.42c4.95-17.68,17.45-33.34,34.17-41.16l2.62,1.39a31.13,31.13,0,0,1,0,4.21C48.13,29.61,37.46,42.13,32.23,56.63c-.13.55-.38,1.64-.5,2.18-.49,1.63-.86,3.29-1.28,4.93C29.71,70,25.57,75,23.22,80.62c-2.85,6.12-6.1,12-9,18.11-1.9,3.79-3.69,7.63-5.66,11.38,3.46.46,8.17-1.41,10.45,2.16-.15,11.1,0,22.21-.07,33.32,8.21,0,16.42-.06,24.63,0a2.86,2.86,0,0,1,3.33,2.21c.76,4.3,1.12,8.66,1.51,13a80,80,0,0,1,1,9c.83,3.08.71,6.31.85,9.48l.63-.06c.06,3.6.43,7.19.16,10.79-1.5.26-3.31,1.39-4.61.05-2.2-2.49-1.13-6.19-2.1-9.18-.2-2.41-.35-4.82-.57-7.22-.81-3.08-.75-6.28-.87-9.43l-.64,0a43,43,0,0,0-.79-9.48c-.1-.91-.2-1.83-.29-2.74-8.64,0-17.27,0-25.9,0L13,150.88c-.8-6.73-.05-13.52-.45-20.28-.4-4.74.56-9.51-.29-14.24a103.21,103.21,0,0,1-10.7-.16c-.4-.6-1.19-1.79-1.58-2.39,1.45-4.69,4.25-8.76,6.25-13.21,3.18-6.73,6.74-13.27,10-20C19.41,73.27,24.57,66.63,25.28,58.42Z"/><path d="M82.26,21.76c1.7-1.22,3.44-2.38,5.18-3.55,1.14,1.74,2.94,3.22,3.42,5.3-1.3,1-2.67,1.87-4,2.82l-1.32.11C84.47,24.87,83.35,23.32,82.26,21.76Z"/><path d="M135.07,40.27c-.82-1.58.49-3,1.27-4.27l3.34.25a66.77,66.77,0,0,1,9.16,16.36q.9,3,1.89,6a68.28,68.28,0,0,1,2.09,23.21c0,3.92-2,7.39-3.57,10.88-3.14,7.41-6.73,14.62-10,22-2.18,5.07-4.5,10.08-6.91,15-.69,1.64-1.39,3.28-2.11,4.9-2.07,4.43-3.85,9-6.25,13.27,1,10,1.79,20,2.79,29.94.19,4.3,1.21,8.6.74,12.91-1.05,1.92-3.11,1.74-5,1.44-.29-.57-.89-1.72-1.19-2.29-.87-14.4-3-28.73-3.45-43.14,1.39-4.21,3.83-8,5.41-12.11,3.15-7.39,6.79-14.57,9.93-22,2.83-6.27,5.72-12.51,8.62-18.74,1.39-3.43,3.33-6.66,4.24-10.27,1.72-11.08-.32-22.58-4.8-32.81C139.6,47.12,137.08,43.84,135.07,40.27Z"/><path d="M116.65,58.92c1.19-1.67,2.38-3.35,3.63-5,2.24,2.38,5.41,1.44,8.27,1.66,5.08,1.34,7.66,8.2,4.18,12.35-2.29,3.38-6.79,3.64-10.26,2.1A9.66,9.66,0,0,1,119,60.63l-2.33-1.71M125.21,62v2.25l2.61.47C128.52,62.63,127.34,61.55,125.21,62Z"/></g></g></g></svg>