<svg xmlns="http://www.w3.org/2000/svg" viewBox="0 0 135.63 133.97"><defs><style>.cls-1{fill:#343434;}</style></defs><title>toooooooooo</title><g id="Layer_2" data-name="Layer 2"><g id="Layer_1-2" data-name="Layer 1"><g id="_343434ff" data-name="#343434ff"><path class="cls-1" d="M53.63,2.15c-.1-2.2,3.5-3,4.3-1,1.2,2.9,1.1,6.1,1.1,9.2a6.35,6.35,0,0,1-4.3,0A37.64,37.64,0,0,1,53.63,2.15Z"/><path class="cls-1" d="M74.33,2.55c1.3-1.8,4.6-.6,4.2,1.7a26.06,26.06,0,0,1-1.8,7.8c-1.5,1.2-4.1.4-4.1-1.7A20.6,20.6,0,0,1,74.33,2.55Z"/><path class="cls-1" d="M38.43,5.65c3-1.9,7.2,1.1,6.4,4.5-.3,2.5-2.9,3.4-4.9,4.3a52.14,52.14,0,0,0-29.1,32.8,52.22,52.22,0,0,0,32.8,64.7c.3-3.3.2-6.7.9-9.9.9-2.7,4.7-3.1,6.7-1.4,6.2,4.4,12.5,8.9,18.8,13.2,1.7,1.3,4.1,2.8,3.7,5.3-.1,2.1-2.3,3.3-4,4.1-7.2,3.4-14.3,7-21.6,10.2-2.2,1.2-5.4.3-5.9-2.4-.5-3.2.3-6.5.5-9.7-11.2-4.8-22-11.1-29.7-20.7-11.6-14-15-33.4-12-51C4.73,29.85,20.23,13.55,38.43,5.65Z"/><path class="cls-1" d="M93.13,10.55c1.6-1.7,4.8.5,3.7,2.6a28.13,28.13,0,0,1-3.9,6.4c-1.4,1.7-4.3-.1-4-2.1A28.3,28.3,0,0,1,93.13,10.55Z"/><path class="cls-1" d="M101.73,30.15a23.39,23.39,0,0,1,7.1-6.2c1.8-.5,3.3,1.3,3,3.1a21.45,21.45,0,0,1-7,5.7C103.13,32.75,102.43,31.35,101.73,30.15Z"/><path class="cls-1" d="M78.53,38.95c2.8-3.4,8.5,2.2,5.1,5-7.8,8-15.7,15.7-23.5,23.6-1.2,1.3-3.2,3-4.9,1.5a78.39,78.39,0,0,1-8.1-8.2c-2.1-2.4,1.1-5.9,3.6-5.7,2.4,1.2,4,3.6,5.9,5.4C64.13,53.45,71.13,46,78.53,38.95Z"/><path class="cls-1" d="M116.13,42.65c1.6-.6,3.8-1.2,4.6.8.9,2.9-2.5,3.7-4.5,4.4s-5.3,2.1-6-.8C109.83,44,114,43.65,116.13,42.65Z"/><path class="cls-1" d="M113.93,62.35c2.7-.5,5.5-.2,8.2-.3,1.1,1.3,2.2,3.5.2,4.5-3.1,1.1-6.6.6-9.8-.2C112.73,64.95,112.23,62.95,113.93,62.35Z"/><path class="cls-1" d="M65.73,78.25c5.5.3,11.1-.5,16.5.4,5.2,1.2,5.5,9.5.5,11.2-3.9,1.1-8.1.1-12.1.7-2.2.9-1.5,3.6-1.8,5.5,5.7,0,11.4,0,17.1-.1v3.7c-6.8,0-13.6.1-20.4.1.3-3.8-1.3-8.7,2.2-11.4,4.3-2.1,9.2-.2,13.7-1.4a2.94,2.94,0,0,0,0-4.5c-5.3-.7-10.6-.1-15.8-.2C65.73,80.85,65.73,79.55,65.73,78.25Z"/><path class="cls-1" d="M89.33,78.25H93c.1,3.5-.3,7.1.4,10.6.5,1.5,2.2,1.3,3.5,1.4,2.8.1,5.6,0,8.3,0,0-4,0-8-.1-12.1,1.3,0,2.5-.1,3.8-.1V90h3.2c-.1,1.2-.1,2.5-.2,3.7-.7,0-2.2-.1-2.9-.1v5.7c-.9,0-2.8.1-3.7.1v-5.7c-4.9-.6-11.8,2-15.1-2.9C88.73,86.75,89.53,82.45,89.33,78.25Z"/><path class="cls-1" d="M114.53,78.15h3.6c0,7.1.1,14.2.1,21.4h-3.7C114.63,92.35,114.63,85.25,114.53,78.15Z"/><path class="cls-1" d="M131.73,78c.9,0,2.7-.1,3.6-.1.2,7.1.1,14.3.3,21.4-1.3,0-2.5,0-3.7.1v-9.3c-3.6.1-7.2.2-10.8.2,0-.8-.1-2.4-.1-3.3,3.6-.1,7.2-.1,10.8-.1C131.73,84,131.73,81,131.73,78Z"/></g></g></g></svg>