<svg xmlns="http://www.w3.org/2000/svg" viewBox="0 0 191.72 96.77"><defs><style>.cls-1{fill:#010101;}</style></defs><title>too</title><g id="Layer_2" data-name="Layer 2"><g id="Layer_1-2" data-name="Layer 1"><g id="_010101ff" data-name="#010101ff"><path class="cls-1" d="M116.23,0c24.35,0,48.7.07,73,0,1.27,1.39,2.72,2.91,2.4,5q0,43.08,0,86.14a12.52,12.52,0,0,1-1,4.5l-2.46,1.07c-22.1.12-44.21,0-66.32.07a19.48,19.48,0,0,1-5.68-.74c-.82-1.23-2.55-2.14-2.31-3.84-.05-10.36,0-20.72,0-31.08A5.93,5.93,0,0,0,112.8,57c-4.16.81-8.44.36-12.6,1-2,2.08-2.54,5.51-5.35,6.85-4.13,2.77-9.23,2.78-14,2.95-2.12,0-4.56.63-5.71,2.56-3.36,5.8-7,11.41-10.67,17.05C63.38,89,62.09,91,60,90.85q-27.1.13-54.22,0A5.65,5.65,0,0,1,0,85.12C0,59.75,0,34.37,0,9A15,15,0,0,1,1.12,4.26C2.19,3.63,3.27,3,4.35,2.41c16.54,0,33.08,0,49.62,0,1.2,0,2.56-.07,3.49.86,3.63,2.9,5.65,7.17,8.17,11a76.8,76.8,0,0,1,6.5,9.48C73.75,25.74,75.19,28,77,29.86a17.38,17.38,0,0,1,3.44,1.08c4.28.51,9-.84,12.92,1.4,3.25,2.26,5.36,5.65,7.72,8.74,3.77-.11,7.56.12,11.33-.09l1.36-1.36c.21-11.91,0-23.83.1-35.74-.24-1.71,1.53-2.62,2.36-3.86M119,4.5c-1.53,2.18-.73,5-.94,7.51.26,10.13-.45,20.3.39,30.4a20.35,20.35,0,0,0,10.84.19c.53-5.48.05-11,.3-16.47,0-1.72,1-3.17,1.79-4.64,9.86-2.2,20.15.12,30.12-1.31A93.76,93.76,0,0,0,161.68,6c0-2-2.34-1.81-3.76-1.94-11.34-.07-22.69,0-34,0a14.94,14.94,0,0,0-4.9.52m48,0c-.83,1.38-.64,3.06-.7,4.6.08,6.32,0,12.65,0,19,.12,1.85-.64,3.56-1.19,5.28-6.7,2.31-14,.28-20.86,1.29-1.6,1.72-.68,4.31-.92,6.42.33,6.87-.65,13.84.55,20.64,7,1.3,14.17-.21,21.16,1,.47,1.43,1.3,2.8,1.26,4.36.12,7.56-.16,15.14.05,22.7-.13,1.78,1.89,2.48,3.35,2.42,5.09,0,10.2.19,15.29-.11,1.89-.25,2.16-2.49,2.11-4q0-37,0-74a68,68,0,0,0-.24-9c-2-1.57-4.73-.85-7.07-1-4.27.2-8.62-.44-12.83.48M4.58,8a12.36,12.36,0,0,0,.13,4.07c.91,1.28,2.8.81,4.15,1,10.37-.1,20.74-.28,31.1.06,3.14.12,4.6,3.32,6.59,5.26,6.23,6.79,12.35,13.71,18.74,20.35,2.24,2.35,5.67,1.64,8.57,1.76,6.38-.09,12.77.2,19.14-.13,2.68-1.3-.09-3.19-1.52-4-5.26-2.4-11.31-.73-16.76-1.92C67.65,25.69,62,15.82,55.27,6.82,39.8,7,24.32,6.83,8.85,6.9,7.37,7,5.55,6.57,4.58,8m.58,9.64a17.86,17.86,0,0,0-.66,5.4c.07,17.22-.06,34.43.08,51.65a8.54,8.54,0,0,0,4.36,1c10.89-.06,21.78.07,32.66-.06a5.87,5.87,0,0,0,4.62-2.22C51.71,67.61,57,61.59,62.5,55.67a6.66,6.66,0,0,1,5.27-2.42c13.34-.17,26.69.11,40-.12,3.3.09,5.66-3.08,9-2.67,5.44.42,11.29-1.15,16.36,1.42,1.87,6,.13,12.3,1.22,18.35,3.34,2,7.67.58,11.43,1,5.33-.22,10.77.57,16-.68-.14-1.27-.31-2.53-.51-3.79-6.56-.29-13.15.24-19.69-.36-1.31-1.51-2.91-3.1-2.74-5.28,0-9.07-.1-18.15.05-27.22-.12-2.18,1.83-3.66,3.83-3.87,6.22-.55,12.49.34,18.68-.48a38.9,38.9,0,0,0,.11-4.18c-7.54-.54-15.11-.09-22.66-.27-1.7,0-4.58-.27-4.77,2.1-.31,5,.08,10-.11,14.92.13,2.37-1.45,5-4,5.21-4.38.66-8.85.18-13.26.34-3.29.46-5.62-2.66-8.84-2.62-14.16-.29-28.34.34-42.51.13-2.44-1.43-3.92-4-6-5.9l1.12-.54L59,38.82C53.57,32.63,48,26.56,42.4,20.46a8.09,8.09,0,0,0-6.55-2.89c-10.23,0-20.46-.11-30.69.1M118.43,55.49c-.8,10.49-.15,21-.38,31.58-.12,1.94,0,5,2.66,5,12.72.24,25.46.1,38.18.07,1.64.22,2.79-1.43,2.89-2.88a77.06,77.06,0,0,0-.37-13.07c-9.28-1.22-18.72,0-28-.64-2.17-.17-3.74-2.41-3.77-4.47-.31-5.23.26-10.48-.36-15.7a27.7,27.7,0,0,0-10.81.07m-53.26,4c-5.6,5.71-10.68,11.91-16.26,17.65a9.21,9.21,0,0,1-6,3.05c-12.53.22-25.08-.31-37.6.28a39.17,39.17,0,0,0-.92,5,16.38,16.38,0,0,0,5.47.85c16.45-.07,32.9.06,49.35-.06,5.69-6.19,9-14.16,14.18-20.74,3.23-3.41,8.29-1.86,12.43-2.48,3.17-.15,8.51-1,7.86-5.36-7.95-.07-15.91-.06-23.86,0A5.66,5.66,0,0,0,65.17,59.51Z"/></g></g></g></svg>